<svg width="22" height="22" viewBox="0 0 22 22" fill="none" xmlns="http://www.w3.org/2000/svg">
<path d="M4.8125 17.875C5.95159 17.875 6.875 16.9516 6.875 15.8125C6.875 14.6734 5.95159 13.75 4.8125 13.75C3.67341 13.75 2.75 14.6734 2.75 15.8125C2.75 16.9516 3.67341 17.875 4.8125 17.875Z" stroke="#818181" stroke-miterlimit="10" stroke-linecap="round" stroke-linejoin="round"/>
<path d="M15.8125 17.875C16.9516 17.875 17.875 16.9516 17.875 15.8125C17.875 14.6734 16.9516 13.75 15.8125 13.75C14.6734 13.75 13.75 14.6734 13.75 15.8125C13.75 16.9516 14.6734 17.875 15.8125 17.875Z" stroke="#818181" stroke-miterlimit="10" stroke-linecap="round" stroke-linejoin="round"/>
<path d="M19.25 13.0625H20.625" stroke="#818181" stroke-miterlimit="10" stroke-linecap="round" stroke-linejoin="round"/>
<path d="M2.75 11H16.5" stroke="#818181" stroke-miterlimit="10" stroke-linecap="round" stroke-linejoin="round"/>
<path d="M8.9375 6.875L6.875 11" stroke="#818181" stroke-miterlimit="10" stroke-linecap="round" stroke-linejoin="round"/>
<path d="M17.875 15.8125H20.625C21.0375 15.8125 21.3125 15.5375 21.3125 15.125V13.75C21.3125 12.2375 20.075 11 18.5625 11H16.5L13.8875 7.8375C13.3375 7.21875 12.5813 6.875 11.7563 6.875H6.53125C5.5 6.875 4.5375 7.49375 4.05625 8.3875L2.75 11H2.0625C1.30625 11 0.6875 11.6187 0.6875 12.375V15.125C0.6875 15.5375 0.9625 15.8125 1.375 15.8125H2.75" stroke="#818181" stroke-miterlimit="10" stroke-linecap="round" stroke-linejoin="round"/>
<path d="M6.875 15.8125H13.75" stroke="#818181" stroke-miterlimit="10" stroke-linecap="round" stroke-linejoin="round"/>
</svg>
