<svg width="17" height="29" viewBox="0 0 17 29" fill="none" xmlns="http://www.w3.org/2000/svg">
<path d="M16.238 13.136C16.238 15.104 15.9647 16.9353 15.418 18.63C14.926 20.3247 14.0787 21.828 12.876 23.14C11.6733 24.452 10.088 25.5453 8.12 26.42C6.152 27.3493 3.71933 27.978 0.822 28.306V25.272C1.36867 25.1627 1.94267 24.8893 2.544 24.452C3.2 24.0693 3.80133 23.468 4.348 22.648C4.89467 21.828 5.332 20.762 5.66 19.45C6.04267 18.1927 6.26133 16.6073 6.316 14.694H3.118C2.35267 14.694 1.806 14.5573 1.478 14.284C1.15 14.0107 0.986001 13.464 0.986001 12.644V2.394C0.986001 1.574 1.15 1.02733 1.478 0.754C1.806 0.480667 2.35267 0.344 3.118 0.344H14.106C14.8713 0.344 15.418 0.480667 15.746 0.754C16.074 1.02733 16.238 1.574 16.238 2.394V13.136Z" fill="white"/>
</svg>
