<svg width="22" height="22" viewBox="0 0 22 22" fill="none" xmlns="http://www.w3.org/2000/svg">
<g clip-path="url(#clip0_221_317)">
<path fill-rule="evenodd" clip-rule="evenodd" d="M11.0002 20.25C15.5565 20.25 19.2502 16.5564 19.2502 12C19.2502 7.4437 15.5565 3.75004 11.0002 3.75004C6.44383 3.75004 2.75016 7.4437 2.75016 12C2.75016 16.5564 6.44383 20.25 11.0002 20.25ZM11.0002 21.1667C16.0628 21.1667 20.1668 17.0627 20.1668 12C20.1668 6.93743 16.0628 2.83337 11.0002 2.83337C5.93755 2.83337 1.8335 6.93743 1.8335 12C1.8335 17.0627 5.93755 21.1667 11.0002 21.1667Z" fill="#818181"/>
<path d="M8.70833 10.1667C8.70833 10.6729 8.29794 11.0833 7.79167 11.0833C7.28539 11.0833 6.875 10.6729 6.875 10.1667C6.875 9.66039 7.28539 9.25 7.79167 9.25C8.29794 9.25 8.70833 9.66039 8.70833 10.1667Z" fill="#818181"/>
<path d="M15.1248 10.1667C15.1248 10.6729 14.7144 11.0833 14.2082 11.0833C13.7019 11.0833 13.2915 10.6729 13.2915 10.1667C13.2915 9.66039 13.7019 9.25 14.2082 9.25C14.7144 9.25 15.1248 9.66039 15.1248 10.1667Z" fill="#818181"/>
<path fill-rule="evenodd" clip-rule="evenodd" d="M13.4899 14.8309L13.489 14.8315L13.4807 14.8371C13.4728 14.8423 13.46 14.8507 13.4428 14.8617C13.4084 14.8838 13.3561 14.9164 13.2884 14.956C13.1527 15.0353 12.9566 15.142 12.7193 15.2486C12.238 15.4649 11.6182 15.6667 10.9999 15.6667C10.3815 15.6667 9.76178 15.4649 9.28044 15.2486C9.04311 15.142 8.84708 15.0353 8.71137 14.956C8.64367 14.9164 8.59138 14.8838 8.55691 14.8617C8.53972 14.8507 8.52698 14.8423 8.51901 14.8371L8.51076 14.8315L8.50989 14.8309C8.50993 14.831 8.50984 14.8309 8.50989 14.8309M8.50989 14.8309C8.50979 14.8308 8.50947 14.8307 8.50938 14.8306C8.30098 14.6874 8.01594 14.7401 7.87244 14.9484C7.72884 15.1568 7.78141 15.4422 7.98986 15.5858L8.23461 15.2306C7.98986 15.5858 7.98977 15.5858 7.98986 15.5858L7.99082 15.5865L7.99234 15.5875L7.99674 15.5905L8.01131 15.6003C8.02355 15.6084 8.04078 15.6197 8.06273 15.6338C8.1066 15.6618 8.16934 15.7009 8.24854 15.7472C8.40667 15.8397 8.63203 15.9622 8.90478 16.0848C9.4436 16.3268 10.1989 16.5834 10.9999 16.5834C11.8009 16.5834 12.5561 16.3268 13.095 16.0848C13.3677 15.9622 13.5931 15.8397 13.7512 15.7472C13.8304 15.7009 13.8931 15.6618 13.937 15.6338C13.959 15.6197 13.9762 15.6084 13.9884 15.6003L14.003 15.5905L14.0074 15.5875L14.0089 15.5865L14.0095 15.5861C14.0096 15.586 14.0099 15.5858 13.7499 15.2084L14.0099 15.5858C14.2183 15.4422 14.2709 15.1568 14.1273 14.9484C13.9838 14.7399 13.6983 14.6875 13.4899 14.8309" fill="#818181"/>
</g>
<defs>
<clipPath id="clip0_221_317">
<rect width="22" height="22" fill="white"/>
</clipPath>
</defs>
</svg>
