<svg width="18" height="18" viewBox="0 0 18 18" fill="none" xmlns="http://www.w3.org/2000/svg">
<path d="M3.375 15.75C3.075 15.75 2.8125 15.6375 2.5875 15.4125C2.3625 15.1875 2.25 14.925 2.25 14.625V3.375C2.25 3.075 2.3625 2.8125 2.5875 2.5875C2.8125 2.3625 3.075 2.25 3.375 2.25H8.60625V3.375H3.375V14.625H14.625V9.39375H15.75V14.625C15.75 14.925 15.6375 15.1875 15.4125 15.4125C15.1875 15.6375 14.925 15.75 14.625 15.75H3.375ZM7.1625 11.6438L6.375 10.8375L13.8375 3.375H9.73125V2.25H15.75V8.26875H14.625V4.18125L7.1625 11.6438Z" fill="black"/>
</svg>
