<svg viewBox="0 0 1024 1024" width="current" height="current" fill="current" version="1.1" xmlns="http://www.w3.org/2000/svg"><path d="M503.830031 25.955715c-8.192918-8.215867-19.552846-12.392649-31.922546-11.773017l-0.826176 0.045899-0.826177-0.045899a41.561273 41.561273 0 0 0-31.945495 11.795966L188.643658 274.749619l-11.818916 12.025459-64.005737 63.776244-23.224742 23.247692a47.367459 47.367459 0 0 0-14.182699 33.55195c0 11.382878 4.291528 21.939579 12.048409 29.719408 13.08113 13.035231 33.138861 15.743254 50.51152 7.022501L428.946302 153.94424V982.002689c0 23.087046 18.910264 41.882564 42.135007 41.882564s42.112057-18.795518 42.112057-41.882564V153.94424L797.489915 437.253967c16.684177 13.08113 40.459704 11.612371 55.629224-3.557149a42.02026 42.02026 0 0 0 0.114747-59.438817L503.830031 25.955715z m0.02295 0"  /></svg>