<svg width="24" height="24" viewBox="0 0 24 24" fill="current" xmlns="http://www.w3.org/2000/svg">
<path d="M15.3 21L8.725 18.675L4.25 20.45C3.96667 20.6 3.6875 20.5917 3.4125 20.425C3.1375 20.2583 3 20.0083 3 19.675V5.725C3 5.50833 3.0625 5.31667 3.1875 5.15C3.3125 4.98333 3.475 4.85833 3.675 4.775L8.725 3L15.3 5.3L19.75 3.525C20.0333 3.39167 20.3125 3.40417 20.5875 3.5625C20.8625 3.72083 21 3.96667 21 4.3V18.425C21 18.6083 20.9375 18.7667 20.8125 18.9C20.6875 19.0333 20.5333 19.1333 20.35 19.2L15.3 21ZM14.45 19.125V6.5L9.55 4.85V17.475L14.45 19.125ZM15.95 19.125L19.5 17.95V5.15L15.95 6.5V19.125ZM4.5 18.825L8.05 17.475V4.85L4.5 6.025V18.825Z"/>
</svg>
