<svg width="250" height="70" viewBox="0 0 250 70" fill="none" xmlns="http://www.w3.org/2000/svg">
<path d="M37.7493 2.26207H30.1643L20.842 9.48004L16.3986 12.9076L11.4786 16.698L14.1333 2.26207H9.0083L3.81755 30.4888H8.94255L10.2254 23.5127L18.6763 17.0206L26.1215 30.4888H32.4355L23.1196 13.5931L37.7493 2.26207ZM59.6166 25.4483L51.8674 2.26207L35.5906 25.4483L32.0396 30.4888H37.7796L41.3306 25.4483L49.8282 13.3511L53.8766 25.4483L55.5736 30.4888H61.3136L59.6166 25.4483ZM83.1992 17.4642C83.993 17.3835 84.7681 17.1819 85.5244 16.8593C88.4119 15.6496 90.7463 12.9882 91.3099 9.9236C91.6955 7.82676 91.183 5.93154 90.0411 4.56053C88.8992 3.18952 87.1279 2.34272 84.9959 2.34272H66.8739L61.6832 30.5694H66.8082L69.1959 17.5851H74.3209C76.1659 17.5851 77.587 18.5529 78.222 20.0046L78.3005 20.2465L80.0761 25.5289L81.7732 30.5694H87.5132L85.8161 25.5289L83.1992 17.4642ZM70.1154 12.585L71.072 7.3832H84.069C84.971 7.3832 85.5119 7.78644 85.7805 8.10903C86.0156 8.39129 86.389 9.03648 86.2184 9.96392C86.0331 10.972 85.2475 11.8995 84.2303 12.3027C83.8727 12.464 83.4889 12.5446 83.1199 12.5446L70.1154 12.585ZM93.4602 2.30239L92.5333 7.34287H104.3L100.036 30.5291H105.161L109.425 7.34287H121.192L122.119 2.30239H93.4602ZM140.479 17.4642C141.273 17.3835 142.048 17.1819 142.804 16.8593C145.692 15.6496 148.026 12.9882 148.59 9.9236C148.975 7.82676 148.463 5.93154 147.321 4.56053C146.179 3.18952 144.408 2.34272 142.276 2.34272H124.154L118.963 30.5694H124.088L126.476 17.5851H131.601C133.446 17.5851 134.867 18.5529 135.502 20.0046L135.58 20.2465L137.356 25.5289L139.053 30.5694H144.793L143.096 25.5289L140.479 17.4642ZM127.395 12.585L128.352 7.3832H141.349C142.251 7.3832 142.792 7.78644 143.06 8.10903C143.296 8.39129 143.669 9.03648 143.498 9.96392C143.313 10.972 142.527 11.8995 141.51 12.3027C141.153 12.464 140.769 12.5446 140.4 12.5446L127.395 12.585ZM152.043 30.4888L157.234 2.26207H152.109L146.918 30.4888H152.043ZM173.618 2.26207H159.268L154.077 30.4888H168.427C172.363 30.4888 176.219 28.9161 179.277 26.3354C179.616 26.0531 179.955 25.7709 180.253 25.4886C182.837 23.0288 184.694 19.8433 185.331 16.3754C186.763 8.59291 181.482 2.30239 173.569 2.30239L173.618 2.26207ZM169.306 25.4886H160.081L163.418 7.34287H172.643C177.727 7.34287 181.119 11.4156 180.199 16.4157C179.28 21.4159 174.39 25.4886 169.306 25.4886ZM196.832 7.30255H217.783L218.71 2.26207H197.759C193.495 2.26207 189.421 5.6896 188.649 9.88327L186.262 22.8676C185.49 27.0612 188.304 30.4888 192.568 30.4888H213.519L214.446 25.4483H193.495C192.06 25.4483 191.086 24.2789 191.346 22.8676L192.324 17.5448H210.774L211.701 12.5043H193.251L193.733 9.88327C193.993 8.47194 195.397 7.30255 196.832 7.30255ZM237.021 17.4642C237.815 17.3835 238.59 17.1819 239.346 16.8593C242.234 15.6496 244.568 12.9882 245.132 9.9236C245.518 7.82676 245.005 5.93154 243.863 4.56053C242.721 3.18952 240.95 2.34272 238.818 2.34272H220.696L215.505 30.5694H220.63L223.018 17.5851H228.143C229.988 17.5851 231.409 18.5529 232.044 20.0046L232.123 20.2465L233.898 25.5289L235.595 30.5694H241.335L239.638 25.5289L237.021 17.4642ZM223.938 12.585L224.894 7.3832H237.891C238.793 7.3832 239.334 7.78644 239.603 8.10903C239.838 8.39129 240.211 9.03648 240.041 9.96392C239.855 10.972 239.07 11.8995 238.052 12.3027C237.695 12.464 237.311 12.5446 236.942 12.5446L223.938 12.585Z" fill="#A1A1A1"/>
<path d="M90.5455 43.4023L89.8843 46.8393H97.9203L94.8786 62.6493H98.3786L101.42 46.8393H109.456L110.118 43.4023H90.5455ZM114.142 62.6218L117.845 43.3748H114.345L110.642 62.6218H114.142ZM137.843 44.8871C137.071 43.9522 135.866 43.3748 134.41 43.3748H122.062L118.359 62.6218H121.859L123.563 53.7682H132.943L132.948 53.7407C133.004 53.7407 133.06 53.7407 133.116 53.7407C133.659 53.6857 134.189 53.5482 134.707 53.3283C136.686 52.5034 138.295 50.6887 138.697 48.599C138.972 47.1692 138.633 45.8769 137.861 44.942L137.843 44.8871ZM133.849 50.2212C133.604 50.3312 133.341 50.3862 133.089 50.3862H124.213L124.896 46.8393H133.772C134.388 46.8393 134.755 47.1142 134.937 47.3342C135.096 47.5266 135.347 47.9666 135.225 48.599C135.093 49.2864 134.551 49.9188 133.854 50.1937L133.849 50.2212ZM161.403 48.6815L161.424 48.5715C161.974 45.7119 160.044 43.3748 157.132 43.3748H149.18C146.268 43.3748 143.466 45.7119 142.916 48.5715L142.895 48.6815C142.683 49.7813 142.823 50.7986 143.253 51.6235C143.39 51.926 143.561 52.2009 143.766 52.4484C144.543 53.3558 145.725 53.9057 147.153 53.9057H154.209C155.693 53.9057 156.698 55.088 156.418 56.5453C156.137 58.0025 154.678 59.1849 153.194 59.1849H147.062C145.578 59.1849 144.601 58.0025 144.882 56.5453H141.382C140.736 59.8997 142.985 62.6218 146.401 62.6218H152.533C155.949 62.6218 159.244 59.8997 159.89 56.5453C160.17 55.088 159.897 53.7407 159.23 52.6959C159.162 52.6134 159.122 52.5309 159.054 52.4484C158.167 51.2386 156.691 50.4687 154.871 50.4687H147.815C146.835 50.4687 146.176 49.6713 146.361 48.709L146.382 48.599C146.568 47.6366 147.533 46.8393 148.513 46.8393H156.465C157.445 46.8393 158.104 47.6366 157.918 48.599L157.897 48.709L161.403 48.6815Z" fill="#A1A1A1"/>
</svg>
