<svg width="250" height="70" viewBox="0 0 250 70" fill="none" xmlns="http://www.w3.org/2000/svg">
<path d="M38.334 2.26207H30.749L21.4267 9.48004L16.9834 12.9076L12.0633 16.698L14.718 2.26207H9.59302L4.40226 30.4888H9.52726L10.8101 23.5127L19.261 17.0206L26.7063 30.4888H33.0203L23.7043 13.5931L38.334 2.26207ZM60.2013 25.4483L52.4521 2.26207L36.1753 25.4483L32.6244 30.4888H38.3644L41.9153 25.4483L50.4129 13.3511L54.4613 25.4483L56.1584 30.4888H61.8984L60.2013 25.4483ZM83.7839 17.4642C84.5777 17.3835 85.3528 17.1819 86.1091 16.8593C88.9966 15.6496 91.331 12.9882 91.8946 9.9236C92.2802 7.82676 91.7677 5.93154 90.6258 4.56053C89.4839 3.18952 87.7127 2.34272 85.5807 2.34272H67.4587L62.2679 30.5694H67.3929L69.7806 17.5851H74.9057C76.7506 17.5851 78.1717 18.5529 78.8067 20.0046L78.8852 20.2465L80.6608 25.5289L82.3579 30.5694H88.0979L86.4008 25.5289L83.7839 17.4642ZM70.7002 12.585L71.6567 7.3832H84.6537C85.5557 7.3832 86.0966 7.78644 86.3653 8.10903C86.6004 8.39129 86.9737 9.03648 86.8032 9.96392C86.6178 10.972 85.8322 11.8995 84.8151 12.3027C84.4574 12.464 84.0736 12.5446 83.7046 12.5446L70.7002 12.585ZM94.045 2.30239L93.118 7.34287H104.885L100.621 30.5291H105.746L110.01 7.34287H121.777L122.704 2.30239H94.045ZM141.064 17.4642C141.858 17.3835 142.633 17.1819 143.389 16.8593C146.276 15.6496 148.611 12.9882 149.174 9.9236C149.56 7.82676 149.048 5.93154 147.906 4.56053C146.764 3.18952 144.993 2.34272 142.861 2.34272H124.739L119.548 30.5694H124.673L127.061 17.5851H132.186C134.031 17.5851 135.452 18.5529 136.087 20.0046L136.165 20.2465L137.941 25.5289L139.638 30.5694H145.378L143.681 25.5289L141.064 17.4642ZM127.98 12.585L128.937 7.3832H141.934C142.836 7.3832 143.376 7.78644 143.645 8.10903C143.88 8.39129 144.254 9.03648 144.083 9.96392C143.898 10.972 143.112 11.8995 142.095 12.3027C141.737 12.464 141.353 12.5446 140.984 12.5446L127.98 12.585ZM152.628 30.4888L157.819 2.26207H152.694L147.503 30.4888H152.628ZM174.203 2.26207H159.853L154.662 30.4888H169.012C172.948 30.4888 176.804 28.9161 179.862 26.3354C180.201 26.0531 180.539 25.7709 180.837 25.4886C183.422 23.0288 185.278 19.8433 185.916 16.3754C187.347 8.59291 182.067 2.30239 174.154 2.30239L174.203 2.26207ZM169.89 25.4886H160.665L164.002 7.34287H173.227C178.311 7.34287 181.703 11.4156 180.784 16.4157C179.864 21.4159 174.974 25.4886 169.89 25.4886ZM197.417 7.30255H218.368L219.295 2.26207H198.344C194.08 2.26207 190.005 5.6896 189.234 9.88327L186.846 22.8676C186.075 27.0612 188.889 30.4888 193.153 30.4888H214.104L215.031 25.4483H194.08C192.645 25.4483 191.671 24.2789 191.93 22.8676L192.909 17.5448H211.359L212.286 12.5043H193.836L194.318 9.88327C194.578 8.47194 195.982 7.30255 197.417 7.30255ZM237.606 17.4642C238.4 17.3835 239.175 17.1819 239.931 16.8593C242.819 15.6496 245.153 12.9882 245.717 9.9236C246.102 7.82676 245.59 5.93154 244.448 4.56053C243.306 3.18952 241.535 2.34272 239.403 2.34272H221.281L216.09 30.5694H221.215L223.603 17.5851H228.728C230.573 17.5851 231.994 18.5529 232.629 20.0046L232.707 20.2465L234.483 25.5289L236.18 30.5694H241.92L240.223 25.5289L237.606 17.4642ZM224.522 12.585L225.479 7.3832H238.476C239.378 7.3832 239.919 7.78644 240.187 8.10903C240.422 8.39129 240.796 9.03648 240.625 9.96392C240.44 10.972 239.654 11.8995 238.637 12.3027C238.279 12.464 237.896 12.5446 237.527 12.5446L224.522 12.585Z" fill="black"/>
<path d="M91.1302 43.4023L90.469 46.8393H98.505L95.4633 62.6493H98.9633L102.005 46.8393H110.041L110.702 43.4023H91.1302ZM114.727 62.6218L118.43 43.3748H114.93L111.227 62.6218H114.727ZM138.428 44.8871C137.656 43.9522 136.451 43.3748 134.995 43.3748H122.647L118.944 62.6218H122.444L124.148 53.7682H133.528L133.533 53.7407C133.589 53.7407 133.645 53.7407 133.701 53.7407C134.243 53.6857 134.774 53.5482 135.292 53.3283C137.271 52.5034 138.88 50.6887 139.282 48.599C139.557 47.1692 139.218 45.8769 138.446 44.942L138.428 44.8871ZM134.434 50.2212C134.189 50.3312 133.926 50.3862 133.674 50.3862H124.798L125.481 46.8393H134.357C134.973 46.8393 135.34 47.1142 135.521 47.3342C135.68 47.5266 135.932 47.9666 135.81 48.599C135.678 49.2864 135.136 49.9188 134.439 50.1937L134.434 50.2212ZM161.987 48.6815L162.008 48.5715C162.559 45.7119 160.628 43.3748 157.716 43.3748H149.764C146.852 43.3748 144.051 45.7119 143.5 48.5715L143.479 48.6815C143.268 49.7813 143.408 50.7986 143.837 51.6235C143.975 51.926 144.146 52.2009 144.351 52.4484C145.128 53.3558 146.31 53.9057 147.738 53.9057H154.794C156.278 53.9057 157.283 55.088 157.002 56.5453C156.722 58.0025 155.263 59.1849 153.779 59.1849H147.647C146.163 59.1849 145.186 58.0025 145.466 56.5453H141.966C141.321 59.8997 143.569 62.6218 146.985 62.6218H153.117C156.533 62.6218 159.829 59.8997 160.474 56.5453C160.755 55.088 160.482 53.7407 159.815 52.6959C159.747 52.6134 159.707 52.5309 159.639 52.4484C158.751 51.2386 157.275 50.4687 155.455 50.4687H148.399C147.419 50.4687 146.761 49.6713 146.946 48.709L146.967 48.599C147.152 47.6366 148.118 46.8393 149.098 46.8393H157.05C158.03 46.8393 158.688 47.6366 158.503 48.599L158.482 48.709L161.987 48.6815Z" fill="#0087CB"/>
</svg>
