<svg width="130" height="29" viewBox="0 0 252 71" fill="none" xmlns="http://www.w3.org/2000/svg">
<g filter="url(#filter0_d_290_366)">
<path d="M38.7494 2.26207H31.1644L21.8421 9.48004L17.3988 12.9076L12.4787 16.698L15.1334 2.26207H10.0084L4.81767 30.4888H9.94267L11.2255 23.5127L19.6764 17.0206L27.1217 30.4888H33.4357L24.1197 13.5931L38.7494 2.26207ZM60.6167 25.4483L52.8675 2.26207L36.5907 25.4483L33.0398 30.4888H38.7798L42.3307 25.4483L50.8283 13.3511L54.8767 25.4483L56.5738 30.4888H62.3138L60.6167 25.4483ZM84.1993 17.4642C84.9931 17.3835 85.7682 17.1819 86.5245 16.8593C89.412 15.6496 91.7464 12.9882 92.31 9.9236C92.6956 7.82676 92.1831 5.93154 91.0412 4.56053C89.8993 3.18952 88.1281 2.34272 85.9961 2.34272H67.8741L62.6833 30.5694H67.8083L70.1961 17.5851H75.3211C77.1661 17.5851 78.5871 18.5529 79.2221 20.0046L79.3006 20.2465L81.0762 25.5289L82.7733 30.5694H88.5133L86.8162 25.5289L84.1993 17.4642ZM71.1156 12.585L72.0721 7.3832H85.0691C85.9711 7.3832 86.512 7.78644 86.7807 8.10903C87.0158 8.39129 87.3891 9.03648 87.2186 9.96392C87.0332 10.972 86.2476 11.8995 85.2305 12.3027C84.8728 12.464 84.489 12.5446 84.12 12.5446L71.1156 12.585ZM94.4604 2.30239L93.5334 7.34287H105.3L101.037 30.5291H106.162L110.425 7.34287H122.192L123.119 2.30239H94.4604ZM141.479 17.4642C142.273 17.3835 143.048 17.1819 143.804 16.8593C146.692 15.6496 149.026 12.9882 149.59 9.9236C149.975 7.82676 149.463 5.93154 148.321 4.56053C147.179 3.18952 145.408 2.34272 143.276 2.34272H125.154L119.963 30.5694H125.088L127.476 17.5851H132.601C134.446 17.5851 135.867 18.5529 136.502 20.0046L136.581 20.2465L138.356 25.5289L140.053 30.5694H145.793L144.096 25.5289L141.479 17.4642ZM128.395 12.585L129.352 7.3832H142.349C143.251 7.3832 143.792 7.78644 144.061 8.10903C144.296 8.39129 144.669 9.03648 144.498 9.96392C144.313 10.972 143.528 11.8995 142.51 12.3027C142.153 12.464 141.769 12.5446 141.4 12.5446L128.395 12.585ZM153.043 30.4888L158.234 2.26207H153.109L147.918 30.4888H153.043ZM174.618 2.26207H160.268L155.077 30.4888H169.427C173.363 30.4888 177.219 28.9161 180.277 26.3354C180.616 26.0531 180.955 25.7709 181.253 25.4886C183.837 23.0288 185.694 19.8433 186.332 16.3754C187.763 8.59291 182.483 2.30239 174.57 2.30239L174.618 2.26207ZM170.306 25.4886H161.081L164.418 7.34287H173.643C178.727 7.34287 182.119 11.4156 181.199 16.4157C180.28 21.4159 175.39 25.4886 170.306 25.4886ZM197.832 7.30255H218.783L219.71 2.26207H198.759C194.495 2.26207 190.421 5.6896 189.649 9.88327L187.262 22.8676C186.491 27.0612 189.304 30.4888 193.568 30.4888H214.519L215.446 25.4483H194.495C193.06 25.4483 192.086 24.2789 192.346 22.8676L193.325 17.5448H211.775L212.701 12.5043H194.251L194.733 9.88327C194.993 8.47194 196.397 7.30255 197.832 7.30255ZM238.021 17.4642C238.815 17.3835 239.59 17.1819 240.347 16.8593C243.234 15.6496 245.568 12.9882 246.132 9.9236C246.518 7.82676 246.005 5.93154 244.863 4.56053C243.721 3.18952 241.95 2.34272 239.818 2.34272H221.696L216.505 30.5694H221.63L224.018 17.5851H229.143C230.988 17.5851 232.409 18.5529 233.044 20.0046L233.123 20.2465L234.898 25.5289L236.595 30.5694H242.335L240.638 25.5289L238.021 17.4642ZM224.938 12.585L225.894 7.3832H238.891C239.793 7.3832 240.334 7.78644 240.603 8.10903C240.838 8.39129 241.211 9.03648 241.041 9.96392C240.855 10.972 240.07 11.8995 239.053 12.3027C238.695 12.464 238.311 12.5446 237.942 12.5446L224.938 12.585Z" fill="white"/>
</g>
<g filter="url(#filter1_d_290_366)">
<path d="M91.5455 43.4023L90.8843 46.8393H98.9203L95.8786 62.6493H99.3786L102.42 46.8393H110.456L111.118 43.4023H91.5455ZM115.142 62.6218L118.845 43.3748H115.345L111.642 62.6218H115.142ZM138.843 44.8871C138.071 43.9522 136.866 43.3748 135.41 43.3748H123.062L119.359 62.6218H122.859L124.563 53.7682H133.943L133.948 53.7407C134.004 53.7407 134.06 53.7407 134.116 53.7407C134.659 53.6857 135.189 53.5482 135.707 53.3283C137.686 52.5034 139.295 50.6887 139.697 48.599C139.972 47.1692 139.633 45.8769 138.861 44.942L138.843 44.8871ZM134.849 50.2212C134.604 50.3312 134.341 50.3862 134.089 50.3862H125.213L125.896 46.8393H134.772C135.388 46.8393 135.755 47.1142 135.937 47.3342C136.096 47.5266 136.347 47.9666 136.225 48.599C136.093 49.2864 135.551 49.9188 134.854 50.1937L134.849 50.2212ZM162.403 48.6815L162.424 48.5715C162.974 45.7119 161.044 43.3748 158.132 43.3748H150.18C147.268 43.3748 144.466 45.7119 143.916 48.5715L143.895 48.6815C143.683 49.7813 143.823 50.7986 144.253 51.6235C144.39 51.926 144.561 52.2009 144.766 52.4484C145.543 53.3558 146.725 53.9057 148.153 53.9057H155.209C156.693 53.9057 157.698 55.088 157.418 56.5453C157.137 58.0025 155.678 59.1849 154.194 59.1849H148.062C146.578 59.1849 145.601 58.0025 145.882 56.5453H142.382C141.736 59.8997 143.985 62.6218 147.401 62.6218H153.533C156.949 62.6218 160.244 59.8997 160.89 56.5453C161.17 55.088 160.897 53.7407 160.23 52.6959C160.162 52.6134 160.122 52.5309 160.054 52.4484C159.167 51.2386 157.691 50.4687 155.871 50.4687H148.815C147.835 50.4687 147.176 49.6713 147.361 48.709L147.382 48.599C147.568 47.6366 148.533 46.8393 149.513 46.8393H157.465C158.445 46.8393 159.104 47.6366 158.918 48.599L158.897 48.709L162.403 48.6815Z" fill="white"/>
</g>
<defs>
<filter id="filter0_d_290_366" x="0.802856" y="2.26208" width="250.738" height="36.3074" filterUnits="userSpaceOnUse" color-interpolation-filters="sRGB">
<feFlood flood-opacity="0" result="BackgroundImageFix"/>
<feColorMatrix in="SourceAlpha" type="matrix" values="0 0 0 0 0 0 0 0 0 0 0 0 0 0 0 0 0 0 127 0" result="hardAlpha"/>
<feOffset dy="4"/>
<feGaussianBlur stdDeviation="2"/>
<feComposite in2="hardAlpha" operator="out"/>
<feColorMatrix type="matrix" values="0 0 0 0 0 0 0 0 0 0 0 0 0 0 0 0 0 0 0.25 0"/>
<feBlend mode="normal" in2="BackgroundImageFix" result="effect1_dropShadow_290_366"/>
<feBlend mode="normal" in="SourceGraphic" in2="effect1_dropShadow_290_366" result="shape"/>
</filter>
<filter id="filter1_d_290_366" x="83.8425" y="43.3748" width="83.5809" height="27.2745" filterUnits="userSpaceOnUse" color-interpolation-filters="sRGB">
<feFlood flood-opacity="0" result="BackgroundImageFix"/>
<feColorMatrix in="SourceAlpha" type="matrix" values="0 0 0 0 0 0 0 0 0 0 0 0 0 0 0 0 0 0 127 0" result="hardAlpha"/>
<feOffset dy="4"/>
<feGaussianBlur stdDeviation="2"/>
<feComposite in2="hardAlpha" operator="out"/>
<feColorMatrix type="matrix" values="0 0 0 0 0 0 0 0 0 0 0 0 0 0 0 0 0 0 0.25 0"/>
<feBlend mode="normal" in2="BackgroundImageFix" result="effect1_dropShadow_290_366"/>
<feBlend mode="normal" in="SourceGraphic" in2="effect1_dropShadow_290_366" result="shape"/>
</filter>
</defs>
</svg>
