<svg width="current" height="current" viewBox="0 0 26 26" fill="current" xmlns="http://www.w3.org/2000/svg">
<path d="M4.875 22.75C4.44167 22.75 4.0625 22.5875 3.7375 22.2625C3.4125 21.9375 3.25 21.5583 3.25 21.125V4.875C3.25 4.44167 3.4125 4.0625 3.7375 3.7375C4.0625 3.4125 4.44167 3.25 4.875 3.25H12.4312V4.875H4.875V21.125H21.125V13.5688H22.75V21.125C22.75 21.5583 22.5875 21.9375 22.2625 22.2625C21.9375 22.5875 21.5583 22.75 21.125 22.75H4.875ZM10.3458 16.8188L9.20833 15.6542L19.9875 4.875H14.0563V3.25H22.75V11.9438H21.125V6.03958L10.3458 16.8188Z" fill="black"/>
</svg>
