<svg width="current" height="current" viewBox="0 0 32 32">
    <g data-name="Layer 2" id="Layer_2">
        <path d="M31,18A11.73,11.73,0,0,0,19.18,7.59H4L7.25,3A1,1,0,0,0,7,1.59a1,1,0,0,0-1.39.24L1.15,8.08a.87.87,0,0,0,0,1l4.47,6.26A1,1,0,0,0,7.25,14.2L4,9.59H19.18A9.73,9.73,0,0,1,29,18.44a9.51,9.51,0,0,1-9.48,10.15H2a1,1,0,1,0,0,2h17.5A11.51,11.51,0,0,0,31,18Z"/><path d="M5.6,15.77,1.13,9.51a.9.9,0,0,1,0-1L5.6,2.23A1,1,0,0,1,7,2H7a1,1,0,0,1,.23,1.4L3.23,9l4,5.6A1,1,0,0,1,7,16H7A1,1,0,0,1,5.6,15.77Z"/><path d="M19.16,8H2A1,1,0,0,0,1,9H1a1,1,0,0,0,1,1H19.16A9.73,9.73,0,0,1,29,18.85,9.51,9.51,0,0,1,19.5,29H2a1,1,0,0,0-1,1H1a1,1,0,0,0,1,1H19.5A11.51,11.51,0,0,0,31,18.39,11.72,11.72,0,0,0,19.16,8Z"/>
    </g>
</svg>