<svg width="current" height="current" fill="current" xmlns="http://www.w3.org/2000/svg" xmlns:xlink="http://www.w3.org/1999/xlink" version="1.1" id="Layer_1" x="0px" y="0px" viewBox="0 0 512 512" xml:space="preserve">
<g>
	<path d="M25.6,281.6h25.6c14.1,0,25.6-11.5,25.6-25.6c0-14.1-11.5-25.6-25.6-25.6H25.6C11.5,230.4,0,241.9,0,256   C0,270.1,11.5,281.6,25.6,281.6z M230.4,25.6v25.6c0,14.1,11.5,25.6,25.6,25.6s25.6-11.5,25.6-25.6V25.6C281.6,11.5,270.1,0,256,0   S230.4,11.5,230.4,25.6z M460.8,281.6h25.6c14.1,0,25.6-11.5,25.6-25.6c0-14.1-11.5-25.6-25.6-25.6h-25.6   c-14.1,0-25.6,11.5-25.6,25.6C435.2,270.1,446.7,281.6,460.8,281.6z M74.1,110.3L92,128.2c10,10,26.2,10,36.2,0   c10-10,10-26.2,0-36.2l-17.9-17.9c-10-10-26.2-10-36.2,0S64.1,100.3,74.1,110.3z M401.7,74.1L383.8,92c-10,10-10,26.2,0,36.2   s26.2,10,36.2,0l17.9-17.9c10-10,10-26.2,0-36.2S411.7,64.1,401.7,74.1z"/>
	<path d="M194.6,337.9c-26.9-20.2-40.9-50.8-41-82c0-21.4,6.6-42.8,20.5-61.3l0,0c20.2-26.9,50.8-40.9,82-41   c21.4,0,42.8,6.6,61.3,20.5l0,0c26.9,20.2,40.9,50.8,41,82c0,21.4-6.6,42.8-20.5,61.3l0,0c-5.8,7.8-12.7,14.7-20.5,20.5l-2.6,2.3   c-22,21.8-34.2,51.3-34.2,81.9c0,5.6,0.4,11.2,1.2,16.9l25.3-3.7h-25.6c0,14.1-11.5,25.6-25.6,25.6c-14.1,0-25.6-11.5-25.6-25.6   h-25.6l25.3,3.7c0.8-5.6,1.2-11.3,1.2-16.9c0-30.5-12.1-60.1-34.2-81.9c-10.1-9.9-26.3-9.9-36.2,0.2c-9.9,10.1-9.9,26.3,0.2,36.2   c12.2,12.1,19,28.5,19,45.5c0,3.1-0.2,6.2-0.7,9.4l-0.3,3.7c0,42.4,34.4,76.8,76.8,76.8c42.4,0,76.8-34.4,76.8-76.8l-0.3-3.7   c-0.5-3.1-0.7-6.3-0.7-9.4c0-17,6.7-33.4,19-45.5l-18-18.2l15.4,20.5c11.6-8.7,22-19.1,30.7-30.7l0,0c20.7-27.6,30.7-60,30.7-92.1   c0-46.6-21.3-92.8-61.4-123l0,0c-27.6-20.7-60-30.7-92.1-30.7c-46.6,0-92.8,21.3-123,61.4l0,0c-20.7,27.6-30.7,60-30.7,92.1   c0,46.6,21.3,92.8,61.4,123c11.3,8.5,27.4,6.2,35.8-5.1C208.2,362.4,205.9,346.4,194.6,337.9L194.6,337.9z"/>
	<path d="M197.1,409.6h117.8c14.1,0,25.6-11.5,25.6-25.6c0-14.1-11.5-25.6-25.6-25.6H197.1c-14.1,0-25.6,11.5-25.6,25.6   C171.5,398.1,183,409.6,197.1,409.6"/>
</g>
</svg>