<svg width="current" height="current" viewBox="0 0 26 26" fill="current" xmlns="http://www.w3.org/2000/svg">
<path d="M13 2.16663C18.9833 2.16663 23.8334 7.01671 23.8334 13C23.8334 18.9832 18.9833 23.8333 13 23.8333C11.271 23.8357 9.56675 23.4225 8.03078 22.6286L3.88595 23.7845C3.6547 23.8491 3.41045 23.851 3.17823 23.79C2.94601 23.7291 2.73416 23.6075 2.5644 23.4378C2.39463 23.268 2.27305 23.0561 2.21212 22.8239C2.15118 22.5917 2.15308 22.3475 2.21761 22.1162L3.37461 17.9746C2.57874 16.4373 2.16445 14.7311 2.1667 13C2.1667 7.01671 7.01678 2.16663 13 2.16663ZM13 3.79163C10.5578 3.79163 8.21565 4.76179 6.48875 6.48868C4.76186 8.21558 3.7917 10.5578 3.7917 13C3.7917 14.5925 4.19578 16.1232 4.95411 17.4817L5.11661 17.7742L3.91195 22.0902L8.2312 20.8855L8.5237 21.048C9.75261 21.7313 11.1217 22.124 12.5259 22.1962C13.9301 22.2683 15.3322 22.0179 16.6247 21.4641C17.9171 20.9104 19.0656 20.068 19.9821 19.0016C20.8985 17.9352 21.5585 16.6731 21.9116 15.3121C22.2647 13.951 22.3013 12.5272 22.0188 11.1498C21.7363 9.77242 21.1421 8.478 20.2818 7.36583C19.4215 6.25366 18.3179 5.35327 17.0557 4.73372C15.7935 4.11416 14.4061 3.7919 13 3.79163ZM9.4792 14.0833H14.352C14.5579 14.0834 14.756 14.1616 14.9065 14.3021C15.0569 14.4426 15.1484 14.635 15.1624 14.8404C15.1764 15.0458 15.112 15.2488 14.9821 15.4085C14.8522 15.5682 14.6665 15.6726 14.4625 15.7007L14.352 15.7083H9.4792C9.27334 15.7082 9.07518 15.63 8.92476 15.4895C8.77433 15.3489 8.68287 15.1566 8.66884 14.9512C8.6548 14.7458 8.71925 14.5427 8.84916 14.3831C8.97907 14.2234 9.16476 14.1189 9.3687 14.0909L9.4792 14.0833ZM9.4792 10.2916H16.5263C16.732 10.292 16.93 10.3704 17.0802 10.511C17.2305 10.6516 17.3217 10.844 17.3356 11.0493C17.3495 11.2546 17.285 11.4575 17.1551 11.6171C17.0252 11.7767 16.8395 11.881 16.6357 11.909L16.5263 11.9166H9.4792C9.27334 11.9166 9.07518 11.8384 8.92476 11.6978C8.77433 11.5573 8.68287 11.3649 8.66884 11.1595C8.6548 10.9541 8.71925 10.7511 8.84916 10.5914C8.97907 10.4317 9.16476 10.3273 9.3687 10.2992L9.4792 10.2916Z" fill="black"/>
</svg>
