<svg width="24" height="24" viewBox="0 0 24 24" fill="current" xmlns="http://www.w3.org/2000/svg">
<path d="M6.525 10.85L12.025 2L17.525 10.85H6.525ZM17.65 22C16.4167 22 15.3833 21.5833 14.55 20.75C13.7167 19.9167 13.3 18.8833 13.3 17.65C13.3 16.4167 13.7167 15.3833 14.55 14.55C15.3833 13.7167 16.4167 13.3 17.65 13.3C18.8833 13.3 19.9167 13.7167 20.75 14.55C21.5833 15.3833 22 16.4167 22 17.65C22 18.8833 21.5833 19.9167 20.75 20.75C19.9167 21.5833 18.8833 22 17.65 22ZM3 21.375V13.775H10.6V21.375H3ZM17.6521 20.5C18.4507 20.5 19.125 20.2243 19.675 19.6729C20.225 19.1215 20.5 18.4465 20.5 17.6479C20.5 16.8493 20.2243 16.175 19.6729 15.625C19.1215 15.075 18.4465 14.8 17.6479 14.8C16.8493 14.8 16.175 15.0757 15.625 15.6271C15.075 16.1785 14.8 16.8535 14.8 17.6521C14.8 18.4507 15.0757 19.125 15.6271 19.675C16.1785 20.225 16.8535 20.5 17.6521 20.5ZM4.5 19.875H9.1V15.275H4.5V19.875ZM9.225 9.35H14.825L12.025 4.825L9.225 9.35Z"/>
</svg>
